<svg width="48" height="28" viewBox="0 0 48 28" fill="none" xmlns="http://www.w3.org/2000/svg">
<path d="M4.47656 11.9219V22H1.38281V9.32031H4.30078L4.47656 11.9219ZM4.01953 15.2031H3.07031C3.07031 14.3203 3.17578 13.5078 3.38672 12.7656C3.60547 12.0234 3.92578 11.3789 4.34766 10.832C4.76953 10.2773 5.28906 9.84766 5.90625 9.54297C6.53125 9.23828 7.25391 9.08594 8.07422 9.08594C8.64453 9.08594 9.16797 9.17188 9.64453 9.34375C10.1211 9.50781 10.5312 9.76953 10.875 10.1289C11.2266 10.4805 11.4961 10.9414 11.6836 11.5117C11.8711 12.0742 11.9648 12.75 11.9648 13.5391V22H8.87109V13.8555C8.87109 13.2617 8.78516 12.7969 8.61328 12.4609C8.44922 12.125 8.21094 11.8906 7.89844 11.7578C7.58594 11.6172 7.21094 11.5469 6.77344 11.5469C6.28906 11.5469 5.87109 11.6445 5.51953 11.8398C5.17578 12.0273 4.89062 12.2891 4.66406 12.625C4.44531 12.9609 4.28125 13.3477 4.17188 13.7852C4.07031 14.2227 4.01953 14.6953 4.01953 15.2031ZM11.7305 14.6289L10.4531 14.8633C10.4609 14.0664 10.5703 13.3203 10.7812 12.625C10.9922 11.9219 11.3008 11.3086 11.707 10.7852C12.1211 10.2539 12.6328 9.83984 13.2422 9.54297C13.8594 9.23828 14.5703 9.08594 15.375 9.08594C16 9.08594 16.5625 9.17578 17.0625 9.35547C17.5703 9.52734 18.0039 9.80469 18.3633 10.1875C18.7227 10.5625 18.9961 11.0508 19.1836 11.6523C19.3789 12.2539 19.4766 12.9883 19.4766 13.8555V22H16.3594V13.8438C16.3594 13.2266 16.2734 12.7539 16.1016 12.4258C15.9375 12.0977 15.6992 11.8711 15.3867 11.7461C15.0742 11.6133 14.707 11.5469 14.2852 11.5469C13.8555 11.5469 13.4805 11.6289 13.1602 11.793C12.8477 11.9492 12.582 12.168 12.3633 12.4492C12.1523 12.7305 11.9922 13.0586 11.8828 13.4336C11.7812 13.8008 11.7305 14.1992 11.7305 14.6289Z" fill="white"/>
<path d="M27.1537 16.9375L29.1928 4.9375H30.5287L28.478 16.9141C28.3452 17.8125 28.0795 18.6758 27.6811 19.5039C27.2827 20.332 26.7319 21.0039 26.0287 21.5195C25.3256 22.0352 24.4662 22.2812 23.4506 22.2578C22.4897 22.2266 21.7358 21.9766 21.1889 21.5078C20.642 21.0312 20.2709 20.4219 20.0756 19.6797C19.8803 18.9297 19.8256 18.1328 19.9116 17.2891H21.2475C21.1928 17.875 21.2123 18.4492 21.3061 19.0117C21.4077 19.5664 21.6342 20.0312 21.9858 20.4062C22.3373 20.7734 22.8569 20.9688 23.5444 20.9922C24.3022 21.0234 24.9272 20.832 25.4194 20.418C25.9194 19.9961 26.31 19.4688 26.5912 18.8359C26.8725 18.2031 27.06 17.5703 27.1537 16.9375ZM32.8739 4.9375L37.327 4.94922C38.2958 4.98047 39.0887 5.21094 39.7059 5.64062C40.3231 6.07031 40.7645 6.65234 41.0302 7.38672C41.3036 8.12109 41.3973 8.94922 41.3114 9.87109C41.2333 10.6836 41.0223 11.4102 40.6786 12.0508C40.3348 12.6836 39.8817 13.2227 39.3192 13.668C38.7567 14.1055 38.1005 14.4531 37.3505 14.7109L36.8817 14.9102L32.0302 14.8984L32.2294 13.6445L36.0614 13.668C36.7958 13.668 37.4403 13.4961 37.995 13.1523C38.5575 12.8008 39.0067 12.3398 39.3427 11.7695C39.6864 11.1992 39.8973 10.5625 39.9755 9.85938C40.0458 9.20312 39.9989 8.60547 39.8348 8.06641C39.6786 7.51953 39.3895 7.07813 38.9677 6.74219C38.5458 6.39844 37.9872 6.21484 37.2919 6.19141H33.9872L31.245 22H29.9091L32.8739 4.9375ZM38.4286 22L36.2137 14.3711L37.5497 14.3594L39.87 21.8359L39.8466 22H38.4286Z" fill="#CCC5B9"/>
<path d="M42.0394 20.3711C42.0394 19.8711 42.2113 19.4531 42.555 19.1172C42.9066 18.7812 43.3714 18.6133 43.9495 18.6133C44.5277 18.6133 44.9886 18.7812 45.3323 19.1172C45.6839 19.4531 45.8597 19.8711 45.8597 20.3711C45.8597 20.8711 45.6839 21.2891 45.3323 21.625C44.9886 21.9609 44.5277 22.1289 43.9495 22.1289C43.3714 22.1289 42.9066 21.9609 42.555 21.625C42.2113 21.2891 42.0394 20.8711 42.0394 20.3711Z" fill="#EB5E28"/>
</svg>
