<svg width="116" height="28" viewBox="0 0 116 28" fill="none" xmlns="http://www.w3.org/2000/svg">
<path d="M4.6875 11.9453V22H1.30078V9.32031H4.47656L4.6875 11.9453ZM4.21875 15.2148H3.28125C3.28125 14.332 3.38672 13.5195 3.59766 12.7773C3.81641 12.0273 4.13281 11.3789 4.54688 10.832C4.96875 10.2773 5.48828 9.84766 6.10547 9.54297C6.72266 9.23828 7.4375 9.08594 8.25 9.08594C8.8125 9.08594 9.32812 9.17188 9.79688 9.34375C10.2656 9.50781 10.668 9.76953 11.0039 10.1289C11.3477 10.4805 11.6133 10.9414 11.8008 11.5117C11.9883 12.0742 12.082 12.75 12.082 13.5391V22H8.70703V13.9141C8.70703 13.3359 8.62891 12.8906 8.47266 12.5781C8.31641 12.2656 8.09375 12.0469 7.80469 11.9219C7.52344 11.7969 7.18359 11.7344 6.78516 11.7344C6.34766 11.7344 5.96484 11.8242 5.63672 12.0039C5.31641 12.1836 5.05078 12.4336 4.83984 12.7539C4.62891 13.0664 4.47266 13.4336 4.37109 13.8555C4.26953 14.2773 4.21875 14.7305 4.21875 15.2148ZM11.7656 14.8281L10.5586 14.9805C10.5586 14.1523 10.6602 13.3828 10.8633 12.6719C11.0742 11.9609 11.3828 11.3359 11.7891 10.7969C12.2031 10.2578 12.7148 9.83984 13.3242 9.54297C13.9336 9.23828 14.6367 9.08594 15.4336 9.08594C16.043 9.08594 16.5977 9.17578 17.0977 9.35547C17.5977 9.52734 18.0234 9.80469 18.375 10.1875C18.7344 10.5625 19.0078 11.0547 19.1953 11.6641C19.3906 12.2734 19.4883 13.0195 19.4883 13.9023V22H16.1016V13.9023C16.1016 13.3164 16.0234 12.8711 15.8672 12.5664C15.7188 12.2539 15.5 12.0391 15.2109 11.9219C14.9297 11.7969 14.5938 11.7344 14.2031 11.7344C13.7969 11.7344 13.4414 11.8164 13.1367 11.9805C12.832 12.1367 12.5781 12.3555 12.375 12.6367C12.1719 12.918 12.0195 13.2461 11.918 13.6211C11.8164 13.9883 11.7656 14.3906 11.7656 14.8281ZM28.9453 19.1406V13.4922C28.9453 13.0859 28.8789 12.7383 28.7461 12.4492C28.6133 12.1523 28.4062 11.9219 28.125 11.7578C27.8516 11.5938 27.4961 11.5117 27.0586 11.5117C26.6836 11.5117 26.3594 11.5781 26.0859 11.7109C25.8125 11.8359 25.6016 12.0195 25.4531 12.2617C25.3047 12.4961 25.2305 12.7734 25.2305 13.0938H21.8555C21.8555 12.5547 21.9805 12.043 22.2305 11.5586C22.4805 11.0742 22.8438 10.6484 23.3203 10.2812C23.7969 9.90625 24.3633 9.61328 25.0195 9.40234C25.6836 9.19141 26.4258 9.08594 27.2461 9.08594C28.2305 9.08594 29.1055 9.25 29.8711 9.57812C30.6367 9.90625 31.2383 10.3984 31.6758 11.0547C32.1211 11.7109 32.3438 12.5312 32.3438 13.5156V18.9414C32.3438 19.6367 32.3867 20.207 32.4727 20.6523C32.5586 21.0898 32.6836 21.4727 32.8477 21.8008V22H29.4375C29.2734 21.6562 29.1484 21.2266 29.0625 20.7109C28.9844 20.1875 28.9453 19.6641 28.9453 19.1406ZM29.3906 14.2773L29.4141 16.1875H27.5273C27.082 16.1875 26.6953 16.2383 26.3672 16.3398C26.0391 16.4414 25.7695 16.5859 25.5586 16.7734C25.3477 16.9531 25.1914 17.1641 25.0898 17.4062C24.9961 17.6484 24.9492 17.9141 24.9492 18.2031C24.9492 18.4922 25.0156 18.7539 25.1484 18.9883C25.2812 19.2148 25.4727 19.3945 25.7227 19.5273C25.9727 19.6523 26.2656 19.7148 26.6016 19.7148C27.1094 19.7148 27.5508 19.6133 27.9258 19.4102C28.3008 19.207 28.5898 18.957 28.793 18.6602C29.0039 18.3633 29.1133 18.082 29.1211 17.8164L30.0117 19.2461C29.8867 19.5664 29.7148 19.8984 29.4961 20.2422C29.2852 20.5859 29.0156 20.9102 28.6875 21.2148C28.3594 21.5117 27.9648 21.7578 27.5039 21.9531C27.043 22.1406 26.4961 22.2344 25.8633 22.2344C25.0586 22.2344 24.3281 22.0742 23.6719 21.7539C23.0234 21.4258 22.5078 20.9766 22.125 20.4062C21.75 19.8281 21.5625 19.1719 21.5625 18.4375C21.5625 17.7734 21.6875 17.1836 21.9375 16.668C22.1875 16.1523 22.5547 15.7188 23.0391 15.3672C23.5312 15.0078 24.1445 14.7383 24.8789 14.5586C25.6133 14.3711 26.4648 14.2773 27.4336 14.2773H29.3906ZM38.3203 12.0859V22H34.9453V9.32031H38.1211L38.3203 12.0859ZM42.1406 9.23828L42.082 12.3672C41.918 12.3438 41.7188 12.3242 41.4844 12.3086C41.2578 12.2852 41.0508 12.2734 40.8633 12.2734C40.3867 12.2734 39.9727 12.3359 39.6211 12.4609C39.2773 12.5781 38.9883 12.7539 38.7539 12.9883C38.5273 13.2227 38.3555 13.5078 38.2383 13.8438C38.1289 14.1797 38.0664 14.5625 38.0508 14.9922L37.3711 14.7812C37.3711 13.9609 37.4531 13.207 37.6172 12.5195C37.7812 11.8242 38.0195 11.2188 38.332 10.7031C38.6523 10.1875 39.043 9.78906 39.5039 9.50781C39.9648 9.22656 40.4922 9.08594 41.0859 9.08594C41.2734 9.08594 41.4648 9.10156 41.6602 9.13281C41.8555 9.15625 42.0156 9.19141 42.1406 9.23828ZM50.5898 18.4961C50.5898 18.2539 50.5195 18.0352 50.3789 17.8398C50.2383 17.6445 49.9766 17.4648 49.5938 17.3008C49.2188 17.1289 48.6758 16.9727 47.9648 16.832C47.3242 16.6914 46.7266 16.5156 46.1719 16.3047C45.625 16.0859 45.1484 15.8242 44.7422 15.5195C44.3438 15.2148 44.0312 14.8555 43.8047 14.4414C43.5781 14.0195 43.4648 13.5391 43.4648 13C43.4648 12.4688 43.5781 11.9688 43.8047 11.5C44.0391 11.0312 44.3711 10.6172 44.8008 10.2578C45.2383 9.89062 45.7695 9.60547 46.3945 9.40234C47.0273 9.19141 47.7383 9.08594 48.5273 9.08594C49.6289 9.08594 50.5742 9.26172 51.3633 9.61328C52.1602 9.96484 52.7695 10.4492 53.1914 11.0664C53.6211 11.6758 53.8359 12.3711 53.8359 13.1523H50.4609C50.4609 12.8242 50.3906 12.5312 50.25 12.2734C50.1172 12.0078 49.9062 11.8008 49.6172 11.6523C49.3359 11.4961 48.9688 11.418 48.5156 11.418C48.1406 11.418 47.8164 11.4844 47.543 11.6172C47.2695 11.7422 47.0586 11.9141 46.9102 12.1328C46.7695 12.3438 46.6992 12.5781 46.6992 12.8359C46.6992 13.0312 46.7383 13.207 46.8164 13.3633C46.9023 13.5117 47.0391 13.6484 47.2266 13.7734C47.4141 13.8984 47.6562 14.0156 47.9531 14.125C48.2578 14.2266 48.6328 14.3203 49.0781 14.4062C49.9922 14.5938 50.8086 14.8398 51.5273 15.1445C52.2461 15.4414 52.8164 15.8477 53.2383 16.3633C53.6602 16.8711 53.8711 17.5391 53.8711 18.3672C53.8711 18.9297 53.7461 19.4453 53.4961 19.9141C53.2461 20.3828 52.8867 20.793 52.418 21.1445C51.9492 21.4883 51.3867 21.7578 50.7305 21.9531C50.082 22.1406 49.3516 22.2344 48.5391 22.2344C47.3594 22.2344 46.3594 22.0234 45.5391 21.6016C44.7266 21.1797 44.1094 20.6445 43.6875 19.9961C43.2734 19.3398 43.0664 18.668 43.0664 17.9805H46.2656C46.2812 18.4414 46.3984 18.8125 46.6172 19.0938C46.8438 19.375 47.1289 19.5781 47.4727 19.7031C47.8242 19.8281 48.2031 19.8906 48.6094 19.8906C49.0469 19.8906 49.4102 19.832 49.6992 19.7148C49.9883 19.5898 50.207 19.4258 50.3555 19.2227C50.5117 19.0117 50.5898 18.7695 50.5898 18.4961ZM62.918 18.4961C62.918 18.2539 62.8477 18.0352 62.707 17.8398C62.5664 17.6445 62.3047 17.4648 61.9219 17.3008C61.5469 17.1289 61.0039 16.9727 60.293 16.832C59.6523 16.6914 59.0547 16.5156 58.5 16.3047C57.9531 16.0859 57.4766 15.8242 57.0703 15.5195C56.6719 15.2148 56.3594 14.8555 56.1328 14.4414C55.9062 14.0195 55.793 13.5391 55.793 13C55.793 12.4688 55.9062 11.9688 56.1328 11.5C56.3672 11.0312 56.6992 10.6172 57.1289 10.2578C57.5664 9.89062 58.0977 9.60547 58.7227 9.40234C59.3555 9.19141 60.0664 9.08594 60.8555 9.08594C61.957 9.08594 62.9023 9.26172 63.6914 9.61328C64.4883 9.96484 65.0977 10.4492 65.5195 11.0664C65.9492 11.6758 66.1641 12.3711 66.1641 13.1523H62.7891C62.7891 12.8242 62.7188 12.5312 62.5781 12.2734C62.4453 12.0078 62.2344 11.8008 61.9453 11.6523C61.6641 11.4961 61.2969 11.418 60.8438 11.418C60.4688 11.418 60.1445 11.4844 59.8711 11.6172C59.5977 11.7422 59.3867 11.9141 59.2383 12.1328C59.0977 12.3438 59.0273 12.5781 59.0273 12.8359C59.0273 13.0312 59.0664 13.207 59.1445 13.3633C59.2305 13.5117 59.3672 13.6484 59.5547 13.7734C59.7422 13.8984 59.9844 14.0156 60.2812 14.125C60.5859 14.2266 60.9609 14.3203 61.4062 14.4062C62.3203 14.5938 63.1367 14.8398 63.8555 15.1445C64.5742 15.4414 65.1445 15.8477 65.5664 16.3633C65.9883 16.8711 66.1992 17.5391 66.1992 18.3672C66.1992 18.9297 66.0742 19.4453 65.8242 19.9141C65.5742 20.3828 65.2148 20.793 64.7461 21.1445C64.2773 21.4883 63.7148 21.7578 63.0586 21.9531C62.4102 22.1406 61.6797 22.2344 60.8672 22.2344C59.6875 22.2344 58.6875 22.0234 57.8672 21.6016C57.0547 21.1797 56.4375 20.6445 56.0156 19.9961C55.6016 19.3398 55.3945 18.668 55.3945 17.9805H58.5938C58.6094 18.4414 58.7266 18.8125 58.9453 19.0938C59.1719 19.375 59.457 19.5781 59.8008 19.7031C60.1523 19.8281 60.5312 19.8906 60.9375 19.8906C61.375 19.8906 61.7383 19.832 62.0273 19.7148C62.3164 19.5898 62.5352 19.4258 62.6836 19.2227C62.8398 19.0117 62.918 18.7695 62.918 18.4961ZM75.2344 19.1406V13.4922C75.2344 13.0859 75.168 12.7383 75.0352 12.4492C74.9023 12.1523 74.6953 11.9219 74.4141 11.7578C74.1406 11.5938 73.7852 11.5117 73.3477 11.5117C72.9727 11.5117 72.6484 11.5781 72.375 11.7109C72.1016 11.8359 71.8906 12.0195 71.7422 12.2617C71.5938 12.4961 71.5195 12.7734 71.5195 13.0938H68.1445C68.1445 12.5547 68.2695 12.043 68.5195 11.5586C68.7695 11.0742 69.1328 10.6484 69.6094 10.2812C70.0859 9.90625 70.6523 9.61328 71.3086 9.40234C71.9727 9.19141 72.7148 9.08594 73.5352 9.08594C74.5195 9.08594 75.3945 9.25 76.1602 9.57812C76.9258 9.90625 77.5273 10.3984 77.9648 11.0547C78.4102 11.7109 78.6328 12.5312 78.6328 13.5156V18.9414C78.6328 19.6367 78.6758 20.207 78.7617 20.6523C78.8477 21.0898 78.9727 21.4727 79.1367 21.8008V22H75.7266C75.5625 21.6562 75.4375 21.2266 75.3516 20.7109C75.2734 20.1875 75.2344 19.6641 75.2344 19.1406ZM75.6797 14.2773L75.7031 16.1875H73.8164C73.3711 16.1875 72.9844 16.2383 72.6562 16.3398C72.3281 16.4414 72.0586 16.5859 71.8477 16.7734C71.6367 16.9531 71.4805 17.1641 71.3789 17.4062C71.2852 17.6484 71.2383 17.9141 71.2383 18.2031C71.2383 18.4922 71.3047 18.7539 71.4375 18.9883C71.5703 19.2148 71.7617 19.3945 72.0117 19.5273C72.2617 19.6523 72.5547 19.7148 72.8906 19.7148C73.3984 19.7148 73.8398 19.6133 74.2148 19.4102C74.5898 19.207 74.8789 18.957 75.082 18.6602C75.293 18.3633 75.4023 18.082 75.4102 17.8164L76.3008 19.2461C76.1758 19.5664 76.0039 19.8984 75.7852 20.2422C75.5742 20.5859 75.3047 20.9102 74.9766 21.2148C74.6484 21.5117 74.2539 21.7578 73.793 21.9531C73.332 22.1406 72.7852 22.2344 72.1523 22.2344C71.3477 22.2344 70.6172 22.0742 69.9609 21.7539C69.3125 21.4258 68.7969 20.9766 68.4141 20.4062C68.0391 19.8281 67.8516 19.1719 67.8516 18.4375C67.8516 17.7734 67.9766 17.1836 68.2266 16.668C68.4766 16.1523 68.8438 15.7188 69.3281 15.3672C69.8203 15.0078 70.4336 14.7383 71.168 14.5586C71.9023 14.3711 72.7539 14.2773 73.7227 14.2773H75.6797ZM84.7969 4V22H81.4102V4H84.7969Z" fill="#D9D9D9"/>
<path d="M94.7344 16.9375L96.7734 4.9375H98.1094L96.0586 16.9141C95.9258 17.8125 95.6602 18.6758 95.2617 19.5039C94.8633 20.332 94.3125 21.0039 93.6094 21.5195C92.9062 22.0352 92.0469 22.2812 91.0312 22.2578C90.0703 22.2266 89.3164 21.9766 88.7695 21.5078C88.2227 21.0312 87.8516 20.4219 87.6562 19.6797C87.4609 18.9297 87.4062 18.1328 87.4922 17.2891H88.8281C88.7734 17.875 88.793 18.4492 88.8867 19.0117C88.9883 19.5664 89.2148 20.0312 89.5664 20.4062C89.918 20.7734 90.4375 20.9688 91.125 20.9922C91.8828 21.0234 92.5078 20.832 93 20.418C93.5 19.9961 93.8906 19.4688 94.1719 18.8359C94.4531 18.2031 94.6406 17.5703 94.7344 16.9375ZM100.455 4.9375L104.908 4.94922C105.876 4.98047 106.669 5.21094 107.287 5.64062C107.904 6.07031 108.345 6.65234 108.611 7.38672C108.884 8.12109 108.978 8.94922 108.892 9.87109C108.814 10.6836 108.603 11.4102 108.259 12.0508C107.915 12.6836 107.462 13.2227 106.9 13.668C106.337 14.1055 105.681 14.4531 104.931 14.7109L104.462 14.9102L99.6108 14.8984L99.81 13.6445L103.642 13.668C104.376 13.668 105.021 13.4961 105.576 13.1523C106.138 12.8008 106.587 12.3398 106.923 11.7695C107.267 11.1992 107.478 10.5625 107.556 9.85938C107.626 9.20312 107.58 8.60547 107.415 8.06641C107.259 7.51953 106.97 7.07813 106.548 6.74219C106.126 6.39844 105.568 6.21484 104.872 6.19141H101.568L98.8256 22H97.4897L100.455 4.9375ZM106.009 22L103.794 14.3711L105.13 14.3594L107.451 21.8359L107.427 22H106.009Z" fill="#CCC5B9"/>
<path d="M109.62 20.3711C109.62 19.8711 109.792 19.4531 110.136 19.1172C110.487 18.7812 110.952 18.6133 111.53 18.6133C112.108 18.6133 112.569 18.7812 112.913 19.1172C113.265 19.4531 113.44 19.8711 113.44 20.3711C113.44 20.8711 113.265 21.2891 112.913 21.625C112.569 21.9609 112.108 22.1289 111.53 22.1289C110.952 22.1289 110.487 21.9609 110.136 21.625C109.792 21.2891 109.62 20.8711 109.62 20.3711Z" fill="#EB5E28"/>
</svg>
